<?xml version="1.0" standalone="no"?>
<!DOCTYPE svg PUBLIC "-//W3C//DTD SVG 20010904//EN"
 "http://www.w3.org/TR/2001/REC-SVG-20010904/DTD/svg10.dtd">
<svg version="1.0" xmlns="http://www.w3.org/2000/svg"
 width="112.000000pt" height="178.000000pt" viewBox="0 0 112.000000 178.000000"
 preserveAspectRatio="xMidYMid meet">

<g transform="translate(0.000000,178.000000) scale(0.100000,-0.100000)"
fill="#000000" stroke="none">
<path d="M499 1727 c-161 -60 -281 -247 -343 -537 -20 -92 -19 -40 4 220 18
206 18 216 1 240 -10 14 -30 31 -45 39 -49 23 -53 7 -67 -214 -15 -258 -15
-834 0 -995 13 -140 34 -273 54 -340 10 -34 18 -46 35 -48 26 -4 25 -10 7 103
-20 119 -19 199 5 380 78 611 229 1016 405 1089 157 66 277 -74 247 -287 -24
-166 -119 -299 -265 -370 -55 -27 -75 -41 -71 -52 5 -12 21 -14 88 -9 96 8
146 -4 212 -49 88 -59 140 -167 150 -312 15 -210 -92 -422 -237 -470 -100 -34
-240 -4 -327 69 -114 97 -120 263 -15 393 l46 56 -29 25 -28 25 -44 -48 c-64
-72 -85 -118 -90 -206 -7 -113 14 -167 97 -250 97 -96 145 -113 326 -114 124
0 147 3 198 23 146 59 247 237 247 437 0 147 -48 274 -137 363 -57 58 -117 89
-203 107 l-55 11 34 18 c44 24 116 91 151 142 129 186 67 449 -130 549 -46 24
-172 30 -221 12z"/>
</g>
</svg>
