<?xml version="1.0" standalone="no"?>
<!DOCTYPE svg PUBLIC "-//W3C//DTD SVG 20010904//EN"
 "http://www.w3.org/TR/2001/REC-SVG-20010904/DTD/svg10.dtd">
<svg version="1.0" xmlns="http://www.w3.org/2000/svg"
 width="67.000000pt" height="66.000000pt" viewBox="0 0 67.000000 66.000000"
 preserveAspectRatio="xMidYMid meet">

<g transform="translate(0.000000,66.000000) scale(0.100000,-0.100000)"
fill="#2B3244" stroke="none">
<path d="M233 646 c-118 -39 -198 -130 -225 -259 -29 -137 49 -290 180 -354
49 -24 69 -28 142 -28 71 0 94 4 141 26 69 33 128 89 159 155 32 65 36 194 8
272 -24 65 -94 139 -163 171 -61 29 -179 38 -242 17z m267 -77 c51 -23 92 -59
122 -108 17 -27 22 -52 23 -120 2 -97 -8 -131 -55 -185 -118 -134 -331 -105
-413 56 -110 213 108 454 323 357z"/>
<path d="M375 526 c-71 -26 -135 -119 -135 -196 0 -85 71 -176 154 -200 102
-28 219 38 241 136 7 28 6 28 -12 -6 -73 -138 -273 -84 -273 75 0 151 203 199
273 65 19 -35 19 -35 12 -5 -8 38 -53 94 -93 118 -42 25 -118 30 -167 13z"/>
<path d="M453 416 l-28 -25 23 -16 c14 -10 22 -26 22 -45 0 -19 -8 -35 -22
-45 l-23 -16 28 -25 c80 -70 201 17 167 121 -24 74 -111 100 -167 51z"/>
</g>
</svg>
