<svg id="Capa_1" enable-background="new 0 0 512 512" height="512" viewBox="0 0 512 512" width="512" xmlns="http://www.w3.org/2000/svg"><g><g><g><g><g><g><g><circle cx="256" cy="256" fill="#EBAA00" r="256"/></g></g></g></g></g></g><path d="m512 256.232-186.642-186.642-112.612 83.115-70.542 272.495 85.224 85.224c9.38 1.041 18.914 1.576 28.572 1.576 141.308 0 255.875-114.49 256-255.768z" fill="#EBAA00"/><g><path d="m142.203 425.2h234.333l81.283-109.286-108.879-9.377-24.77 9.377h-181.967z" fill="#fff"/></g><g><path d="m457.819 315.914-108.879-9.377-24.77 9.377h-68.049v109.286h120.415z" fill="#fff"/></g><g><path d="m58.655 315.914 83.548 109.286 167.798-326.853-118.885-28.757z" fill="#fff"/></g><g><path d="m457.819 315.914h-133.649l-132.46-246.324h133.648z" fill="#fff"/></g><g><path d="m457.819 315.914-132.461-246.324h-69.237v119.779l68.049 126.545z" fill="#fff"/></g></g></svg>