<?xml version="1.0" standalone="no"?>
<!DOCTYPE svg PUBLIC "-//W3C//DTD SVG 20010904//EN"
 "http://www.w3.org/TR/2001/REC-SVG-20010904/DTD/svg10.dtd">
<svg version="1.0" xmlns="http://www.w3.org/2000/svg"
 width="155.000000pt" height="156.000000pt" viewBox="0 0 155.000000 156.000000"
 preserveAspectRatio="xMidYMid meet">

<g transform="translate(0.000000,156.000000) scale(0.100000,-0.100000)"
fill="#000000" stroke="none">
<path d="M33 1443 c12 -226 77 -442 188 -625 l23 -37 -28 -48 c-101 -177 -180
-430 -202 -645 l-7 -68 150 0 150 0 12 89 c6 48 20 124 31 167 21 83 86 261
99 268 5 4 149 -88 168 -108 3 -2 -6 -38 -20 -78 -25 -75 -51 -192 -62 -286
l-7 -52 140 0 139 0 6 83 c3 45 13 115 22 156 15 66 19 72 39 68 11 -3 70 -17
130 -31 131 -30 262 -46 411 -49 l110 -2 3 133 3 132 -98 0 c-156 1 -408 41
-400 64 6 19 130 75 202 92 48 11 104 15 180 12 l110 -3 0 120 0 120 -120 6
c-80 5 -141 14 -185 28 -74 24 -165 71 -165 86 0 20 116 37 293 42 l183 5 -3
127 -3 126 -65 6 c-142 12 -389 -17 -543 -65 l-48 -14 -11 26 c-14 38 -37 169
-38 220 l0 42 -135 0 -135 0 0 -59 c0 -72 25 -207 51 -275 10 -28 19 -56 19
-63 0 -6 -17 -22 -37 -35 -21 -12 -62 -42 -90 -65 -29 -24 -57 -43 -62 -43
-15 0 -71 146 -91 238 -11 48 -22 135 -26 195 l-7 107 -140 0 -140 0 6 -107z
m800 -565 c29 -24 63 -50 76 -58 l23 -16 -38 -28 c-22 -16 -58 -47 -81 -69
l-42 -40 -46 27 c-58 35 -117 85 -110 96 7 11 154 130 161 130 2 0 28 -19 57
-42z"/>
</g>
</svg>
